<svg xmlns="http://www.w3.org/2000/svg" viewBox="71.50999999999999 91.11000000000001 431.97 392.77"><svg xmlns="http://www.w3.org/2000/svg" xmlns:xlink="http://www.w3.org/1999/xlink" id="Layer_1" x="172" y="161" viewBox="40.5 69.1015625 265 174.8984375" xml:space="preserve" height="148" width="230" preserveAspectRatio="xMinYMin" style="overflow: visible;"><path class="st0" d="M277.7,143.4c0.2-1.9,0.2-3.7,0.2-5.6c0-35.2-28.6-63.7-63.7-63.7c-12.9,0-24.9,3.8-35,10.4  c40.6,24.2,67.7,68.5,67.7,119.1c0,0.9,0,1.8,0,2.8c-1.5,7.1-7.8,12.4-15.3,12.4c-7.3,0-13.4-5-15.1-11.7c0.1-1.4,0.1-2.8,0.1-4.2  c0-58.4-46.7-105.8-104.8-107.1C95,101.9,83,117.6,83,135.9c0,0.1,0,0.1,0,0.2c-21.7,6.4-37.5,26.5-37.5,50.4  c0,29.1,23.4,52.5,52.5,52.5h150c29.1,0,52.5-23.4,52.5-52.5C300.5,168.5,291.4,152.8,277.7,143.4z M113.2,220.1  c-12.3,0-22.2-9.9-22.2-22.2c0-12.2,9.9-22.2,22.2-22.2s22.2,9.9,22.2,22.2C135.4,210.2,125.5,220.1,113.2,220.1z M190.9,206.7  c-1.6,6.9-7.8,12-15.2,12c-8.6,0-15.6-7-15.6-15.6c0-0.6-0.1-1.1-0.1-1.5c0,0,0-0.1,0-0.1c0-28-22.7-50.7-50.7-50.7  c-0.7,0-1.4,0-2.2,0.1c-8.3-0.4-14.9-7.2-14.9-15.6c0-7.4,5.2-13.6,12.1-15.2c0.9,0,1.9-0.1,2.8-0.1c46.3,0,83.9,37.5,83.9,83.8  C191,204.8,190.9,205.7,190.9,206.7z" style="fill-rule: evenodd; clip-rule: evenodd; fill: #335c81;"/></svg><svg y="395" viewBox="1.1484375 5.26953125 203.12109375 18.26171875" x="185" height="18" width="203" style="overflow: visible;"><g fill="#335c81" fill-opacity="1" style=""><path d="M2.07 7.22Q1.69 7.22 1.42 6.95Q1.15 6.68 1.15 6.28L1.15 6.28Q1.15 5.89 1.42 5.63Q1.69 5.36 2.07 5.36L2.07 5.36Q2.45 5.36 2.72 5.63Q2.99 5.89 2.99 6.28L2.99 6.28Q2.99 6.68 2.72 6.95Q2.45 7.22 2.07 7.22L2.07 7.22ZM1.44 9.07L2.70 9.07L2.70 18.90L1.44 18.90L1.44 9.07ZM11.17 8.89Q12.93 8.89 14.05 9.98Q15.17 11.07 15.17 13.14L15.17 13.14L15.17 18.90L13.92 18.90L13.92 13.28Q13.92 11.68 13.12 10.84Q12.32 9.99 10.94 9.99L10.94 9.99Q9.51 9.99 8.67 10.89Q7.82 11.79 7.82 13.54L7.82 13.54L7.82 18.90L6.56 18.90L6.56 9.07L7.82 9.07L7.82 10.75Q8.29 9.85 9.17 9.37Q10.05 8.89 11.17 8.89L11.17 8.89ZM23.29 10.13L20.59 10.13L20.59 16.24Q20.59 17.14 20.94 17.48Q21.28 17.82 22.14 17.82L22.14 17.82L23.29 17.82L23.29 18.90L21.94 18.90Q20.61 18.90 19.96 18.28Q19.32 17.66 19.32 16.24L19.32 16.24L19.32 10.13L17.95 10.13L17.95 9.07L19.32 9.07L19.32 6.61L20.59 6.61L20.59 9.07L23.29 9.07L23.29 10.13ZM35.26 13.48Q35.26 14.13 35.22 14.47L35.22 14.47L27.07 14.47Q27.12 15.59 27.61 16.38Q28.09 17.17 28.88 17.58Q29.68 17.98 30.61 17.98L30.61 17.98Q31.84 17.98 32.67 17.39Q33.51 16.79 33.78 15.79L33.78 15.79L35.11 15.79Q34.75 17.23 33.57 18.14Q32.39 19.04 30.61 19.04L30.61 19.04Q29.23 19.04 28.13 18.42Q27.03 17.80 26.41 16.66Q25.79 15.52 25.79 13.99L25.79 13.99Q25.79 12.46 26.40 11.30Q27.01 10.15 28.11 9.54Q29.21 8.93 30.61 8.93L30.61 8.93Q32.02 8.93 33.07 9.54Q34.12 10.15 34.69 11.19Q35.26 12.22 35.26 13.48L35.26 13.48ZM33.98 13.45Q34.00 12.35 33.54 11.57Q33.08 10.80 32.29 10.40Q31.49 10.01 30.56 10.01L30.56 10.01Q29.15 10.01 28.16 10.91Q27.17 11.81 27.07 13.45L27.07 13.45L33.98 13.45ZM39.82 10.82Q40.23 9.90 41.09 9.40Q41.94 8.89 43.19 8.89L43.19 8.89L43.19 10.21L42.84 10.21Q41.48 10.21 40.65 10.94Q39.82 11.68 39.82 13.41L39.82 13.41L39.82 18.90L38.56 18.90L38.56 9.07L39.82 9.07L39.82 10.82ZM50.68 8.89Q52.45 8.89 53.56 9.98Q54.68 11.07 54.68 13.14L54.68 13.14L54.68 18.90L53.44 18.90L53.44 13.28Q53.44 11.68 52.64 10.84Q51.84 9.99 50.45 9.99L50.45 9.99Q49.03 9.99 48.18 10.89Q47.34 11.79 47.34 13.54L47.34 13.54L47.34 18.90L46.08 18.90L46.08 9.07L47.34 9.07L47.34 10.75Q47.80 9.85 48.69 9.37Q49.57 8.89 50.68 8.89L50.68 8.89ZM67.36 13.48Q67.36 14.13 67.33 14.47L67.33 14.47L59.17 14.47Q59.23 15.59 59.71 16.38Q60.20 17.17 60.99 17.58Q61.78 17.98 62.72 17.98L62.72 17.98Q63.94 17.98 64.78 17.39Q65.62 16.79 65.89 15.79L65.89 15.79L67.22 15.79Q66.86 17.23 65.68 18.14Q64.50 19.04 62.72 19.04L62.72 19.04Q61.33 19.04 60.23 18.42Q59.14 17.80 58.52 16.66Q57.89 15.52 57.89 13.99L57.89 13.99Q57.89 12.46 58.51 11.30Q59.12 10.15 60.22 9.54Q61.31 8.93 62.72 8.93L62.72 8.93Q64.12 8.93 65.17 9.54Q66.23 10.15 66.80 11.19Q67.36 12.22 67.36 13.48L67.36 13.48ZM66.08 13.45Q66.10 12.35 65.64 11.57Q65.18 10.80 64.39 10.40Q63.60 10.01 62.66 10.01L62.66 10.01Q61.26 10.01 60.27 10.91Q59.28 11.81 59.17 13.45L59.17 13.45L66.08 13.45ZM75.00 10.13L72.30 10.13L72.30 16.24Q72.30 17.14 72.65 17.48Q72.99 17.82 73.85 17.82L73.85 17.82L75.00 17.82L75.00 18.90L73.65 18.90Q72.32 18.90 71.67 18.28Q71.03 17.66 71.03 16.24L71.03 16.24L71.03 10.13L69.66 10.13L69.66 9.07L71.03 9.07L71.03 6.61L72.30 6.61L72.30 9.07L75.00 9.07L75.00 10.13ZM87.88 9.07L87.88 10.13L85.59 10.13L85.59 18.90L84.33 18.90L84.33 10.13L82.96 10.13L82.96 9.07L84.33 9.07L84.33 8.39Q84.33 6.79 85.15 6.03Q85.97 5.27 87.80 5.27L87.80 5.27L87.80 6.35Q86.58 6.35 86.09 6.82Q85.59 7.29 85.59 8.39L85.59 8.39L85.59 9.07L87.88 9.07ZM95.16 19.04Q93.77 19.04 92.66 18.42Q91.56 17.80 90.92 16.66Q90.28 15.52 90.28 13.99L90.28 13.99Q90.28 12.46 90.93 11.31Q91.58 10.17 92.69 9.55Q93.81 8.93 95.19 8.93L95.19 8.93Q96.58 8.93 97.70 9.55Q98.83 10.17 99.47 11.31Q100.11 12.46 100.11 13.99L100.11 13.99Q100.11 15.50 99.46 16.65Q98.81 17.80 97.68 18.42Q96.54 19.04 95.16 19.04L95.16 19.04ZM95.16 17.95Q96.13 17.95 96.96 17.51Q97.79 17.06 98.30 16.17Q98.81 15.28 98.81 13.99L98.81 13.99Q98.81 12.69 98.31 11.80Q97.80 10.91 96.98 10.47Q96.15 10.03 95.18 10.03L95.18 10.03Q94.20 10.03 93.38 10.47Q92.55 10.91 92.05 11.80Q91.56 12.69 91.56 13.99L91.56 13.99Q91.56 15.28 92.05 16.17Q92.55 17.06 93.37 17.51Q94.19 17.95 95.16 17.95L95.16 17.95ZM104.67 10.82Q105.09 9.90 105.94 9.40Q106.80 8.89 108.04 8.89L108.04 8.89L108.04 10.21L107.70 10.21Q106.33 10.21 105.50 10.94Q104.67 11.68 104.67 13.41L104.67 13.41L104.67 18.90L103.41 18.90L103.41 9.07L104.67 9.07L104.67 10.82ZM125.75 13.48Q125.75 14.13 125.72 14.47L125.72 14.47L117.56 14.47Q117.62 15.59 118.10 16.38Q118.59 17.17 119.38 17.58Q120.17 17.98 121.11 17.98L121.11 17.98Q122.33 17.98 123.17 17.39Q124.01 16.79 124.28 15.79L124.28 15.79L125.61 15.79Q125.25 17.23 124.07 18.14Q122.89 19.04 121.11 19.04L121.11 19.04Q119.72 19.04 118.62 18.42Q117.53 17.80 116.91 16.66Q116.28 15.52 116.28 13.99L116.28 13.99Q116.28 12.46 116.90 11.30Q117.51 10.15 118.61 9.54Q119.70 8.93 121.11 8.93L121.11 8.93Q122.51 8.93 123.56 9.54Q124.62 10.15 125.19 11.19Q125.75 12.22 125.75 13.48L125.75 13.48ZM124.47 13.45Q124.49 12.35 124.03 11.57Q123.57 10.80 122.78 10.40Q121.99 10.01 121.05 10.01L121.05 10.01Q119.65 10.01 118.66 10.91Q117.67 11.81 117.56 13.45L117.56 13.45L124.47 13.45ZM129.24 9.07L132.55 17.68L135.86 9.07L137.19 9.07L133.25 18.90L131.83 18.90L127.89 9.07L129.24 9.07ZM148.79 13.48Q148.79 14.13 148.76 14.47L148.76 14.47L140.60 14.47Q140.66 15.59 141.14 16.38Q141.63 17.17 142.42 17.58Q143.21 17.98 144.15 17.98L144.15 17.98Q145.37 17.98 146.21 17.39Q147.05 16.79 147.32 15.79L147.32 15.79L148.65 15.79Q148.29 17.23 147.11 18.14Q145.93 19.04 144.15 19.04L144.15 19.04Q142.76 19.04 141.67 18.42Q140.57 17.80 139.95 16.66Q139.33 15.52 139.33 13.99L139.33 13.99Q139.33 12.46 139.94 11.30Q140.55 10.15 141.65 9.54Q142.75 8.93 144.15 8.93L144.15 8.93Q145.55 8.93 146.61 9.54Q147.66 10.15 148.23 11.19Q148.79 12.22 148.79 13.48L148.79 13.48ZM147.52 13.45Q147.53 12.35 147.07 11.57Q146.62 10.80 145.82 10.40Q145.03 10.01 144.10 10.01L144.10 10.01Q142.69 10.01 141.70 10.91Q140.71 11.81 140.60 13.45L140.60 13.45L147.52 13.45ZM153.36 10.82Q153.77 9.90 154.63 9.40Q155.48 8.89 156.72 8.89L156.72 8.89L156.72 10.21L156.38 10.21Q155.01 10.21 154.19 10.94Q153.36 11.68 153.36 13.41L153.36 13.41L153.36 18.90L152.10 18.90L152.10 9.07L153.36 9.07L153.36 10.82ZM166.42 9.07L167.71 9.07L161.88 23.53L160.57 23.53L162.48 18.85L158.44 9.07L159.83 9.07L163.18 17.46L166.42 9.07ZM174.73 19.04Q173.34 19.04 172.23 18.42Q171.13 17.80 170.49 16.66Q169.85 15.52 169.85 13.99L169.85 13.99Q169.85 12.46 170.50 11.31Q171.14 10.17 172.26 9.55Q173.38 8.93 174.76 8.93L174.76 8.93Q176.15 8.93 177.27 9.55Q178.40 10.17 179.04 11.31Q179.68 12.46 179.68 13.99L179.68 13.99Q179.68 15.50 179.03 16.65Q178.38 17.80 177.25 18.42Q176.11 19.04 174.73 19.04L174.73 19.04ZM174.73 17.95Q175.70 17.95 176.53 17.51Q177.35 17.06 177.87 16.17Q178.38 15.28 178.38 13.99L178.38 13.99Q178.38 12.69 177.88 11.80Q177.37 10.91 176.54 10.47Q175.72 10.03 174.74 10.03L174.74 10.03Q173.77 10.03 172.94 10.47Q172.12 10.91 171.62 11.80Q171.13 12.69 171.13 13.99L171.13 13.99Q171.13 15.28 171.62 16.17Q172.12 17.06 172.93 17.51Q173.75 17.95 174.73 17.95L174.73 17.95ZM187.59 8.89Q189.35 8.89 190.47 9.98Q191.58 11.07 191.58 13.14L191.58 13.14L191.58 18.90L190.34 18.90L190.34 13.28Q190.34 11.68 189.54 10.84Q188.74 9.99 187.35 9.99L187.35 9.99Q185.93 9.99 185.09 10.89Q184.24 11.79 184.24 13.54L184.24 13.54L184.24 18.90L182.98 18.90L182.98 9.07L184.24 9.07L184.24 10.75Q184.71 9.85 185.59 9.37Q186.47 8.89 187.59 8.89L187.59 8.89ZM204.27 13.48Q204.27 14.13 204.23 14.47L204.23 14.47L196.08 14.47Q196.13 15.59 196.62 16.38Q197.10 17.17 197.89 17.58Q198.69 17.98 199.62 17.98L199.62 17.98Q200.85 17.98 201.68 17.39Q202.52 16.79 202.79 15.79L202.79 15.79L204.12 15.79Q203.76 17.23 202.58 18.14Q201.40 19.04 199.62 19.04L199.62 19.04Q198.24 19.04 197.14 18.42Q196.04 17.80 195.42 16.66Q194.80 15.52 194.80 13.99L194.80 13.99Q194.80 12.46 195.41 11.30Q196.02 10.15 197.12 9.54Q198.22 8.93 199.62 8.93L199.62 8.93Q201.03 8.93 202.08 9.54Q203.13 10.15 203.70 11.19Q204.27 12.22 204.27 13.48L204.27 13.48ZM202.99 13.45Q203.01 12.35 202.55 11.57Q202.09 10.80 201.30 10.40Q200.50 10.01 199.57 10.01L199.57 10.01Q198.16 10.01 197.17 10.91Q196.18 11.81 196.08 13.45L196.08 13.45L202.99 13.45Z" transform="translate(0, 0)"/></g></svg><svg y="350" viewBox="3.58984375 7.76953125 291.96875 26.5703125" x="141" height="26" width="291" style="overflow: visible;"><g fill="#274060" fill-opacity="1" style=""><path d="M5.25 34.15Q4.55 34.15 4.07 33.67Q3.59 33.19 3.59 32.49L3.59 32.49L3.59 9.66Q3.59 8.95 4.07 8.45Q4.55 7.96 5.25 7.96L5.25 7.96Q5.96 7.96 6.46 8.45Q6.96 8.95 6.96 9.66L6.96 9.66L6.96 32.49Q6.96 33.19 6.46 33.67Q5.96 34.15 5.25 34.15L5.25 34.15ZM14.76 34.15Q14.06 34.15 13.58 33.67Q13.10 33.19 13.10 32.49L13.10 32.49L13.10 16.61Q13.10 15.91 13.58 15.41Q14.06 14.91 14.76 14.91L14.76 14.91Q15.47 14.91 15.97 15.41Q16.46 15.91 16.46 16.61L16.46 16.61L16.46 18.13Q17.87 16.58 19.50 15.65Q21.13 14.73 23.35 14.73L23.35 14.73Q25.38 14.73 26.88 15.69Q28.38 16.65 29.17 18.32Q29.97 19.98 29.97 21.98L29.97 21.98L29.97 32.49Q29.97 33.19 29.47 33.67Q28.97 34.15 28.27 34.15L28.27 34.15Q27.57 34.15 27.08 33.67Q26.60 33.19 26.60 32.49L26.60 32.49L26.60 22.35Q26.60 17.83 22.53 17.83L22.53 17.83Q20.68 17.83 19.22 18.80Q17.76 19.76 16.46 21.39L16.46 21.39L16.46 32.49Q16.46 33.19 15.97 33.67Q15.47 34.15 14.76 34.15L14.76 34.15ZM41.70 34.34Q36.30 34.34 36.30 29.45L36.30 29.45L36.30 17.98L33.67 17.98Q33.37 17.98 33.17 17.78Q32.97 17.58 32.97 17.28L32.97 17.28Q32.97 16.91 33.30 16.65L33.30 16.65L38.33 11.73Q38.66 11.40 38.96 11.40L38.96 11.40Q39.26 11.40 39.46 11.62Q39.66 11.84 39.66 12.14L39.66 12.14L39.66 15.10L43.84 15.10Q44.47 15.10 44.88 15.50Q45.29 15.91 45.29 16.54L45.29 16.54Q45.29 17.13 44.88 17.56Q44.47 17.98 43.84 17.98L43.84 17.98L39.66 17.98L39.66 29.16Q39.66 30.60 40.35 30.99Q41.03 31.38 42.07 31.38L42.07 31.38Q42.81 31.38 43.55 31.15L43.55 31.15Q43.70 31.12 43.86 31.08Q44.03 31.04 44.29 31.04L44.29 31.04Q44.81 31.04 45.21 31.43Q45.62 31.82 45.62 32.38L45.62 32.38Q45.62 33.23 44.77 33.67L44.77 33.67Q43.33 34.34 41.70 34.34L41.70 34.34ZM57.50 34.34Q52.98 34.34 50.45 31.76Q47.91 29.19 47.91 24.53L47.91 24.53Q47.91 21.90 48.88 19.68Q49.84 17.46 51.84 16.10Q53.83 14.73 56.76 14.73L56.76 14.73Q59.50 14.73 61.49 16.00Q63.49 17.28 64.53 19.41Q65.56 21.53 65.56 24.05L65.56 24.05Q65.56 24.75 65.10 25.23Q64.64 25.72 63.86 25.72L63.86 25.72L51.32 25.72Q51.61 28.30 53.24 29.75Q54.87 31.19 57.79 31.19L57.79 31.19Q59.35 31.19 60.51 30.90Q61.68 30.60 62.79 30.04L62.79 30.04Q63.08 29.90 63.45 29.90L63.45 29.90Q64.05 29.90 64.49 30.30Q64.94 30.71 64.94 31.34L64.94 31.34Q64.94 32.15 63.97 32.71L63.97 32.71Q62.53 33.52 61.12 33.93Q59.72 34.34 57.50 34.34L57.50 34.34ZM51.32 22.98L62.23 22.98Q62.12 21.16 61.29 19.94Q60.46 18.72 59.24 18.15Q58.02 17.58 56.76 17.58L56.76 17.58Q55.50 17.58 54.28 18.15Q53.06 18.72 52.24 19.94Q51.43 21.16 51.32 22.98L51.32 22.98ZM71.67 34.15Q70.97 34.15 70.48 33.67Q70.00 33.19 70.00 32.49L70.00 32.49L70.00 16.61Q70.00 15.91 70.48 15.41Q70.97 14.91 71.67 14.91L71.67 14.91Q72.37 14.91 72.87 15.41Q73.37 15.91 73.37 16.61L73.37 16.61L73.37 18.20Q75.96 14.73 79.18 14.73L79.18 14.73L79.36 14.73Q80.07 14.73 80.53 15.21Q80.99 15.69 80.99 16.39L80.99 16.39Q80.99 17.09 80.51 17.54Q80.03 17.98 79.29 17.98L79.29 17.98L79.11 17.98Q77.33 17.98 75.85 18.85Q74.37 19.72 73.37 21.24L73.37 21.24L73.37 32.49Q73.37 33.19 72.87 33.67Q72.37 34.15 71.67 34.15L71.67 34.15ZM85.84 34.15Q85.14 34.15 84.66 33.67Q84.17 33.19 84.17 32.49L84.17 32.49L84.17 16.61Q84.17 15.91 84.66 15.41Q85.14 14.91 85.84 14.91L85.84 14.91Q86.54 14.91 87.04 15.41Q87.54 15.91 87.54 16.61L87.54 16.61L87.54 18.13Q88.95 16.58 90.58 15.65Q92.20 14.73 94.42 14.73L94.42 14.73Q96.46 14.73 97.96 15.69Q99.46 16.65 100.25 18.32Q101.05 19.98 101.05 21.98L101.05 21.98L101.05 32.49Q101.05 33.19 100.55 33.67Q100.05 34.15 99.34 34.15L99.34 34.15Q98.64 34.15 98.16 33.67Q97.68 33.19 97.68 32.49L97.68 32.49L97.68 22.35Q97.68 17.83 93.61 17.83L93.61 17.83Q91.76 17.83 90.30 18.80Q88.84 19.76 87.54 21.39L87.54 21.39L87.54 32.49Q87.54 33.19 87.04 33.67Q86.54 34.15 85.84 34.15L85.84 34.15ZM115.14 34.34Q110.63 34.34 108.10 31.76Q105.56 29.19 105.56 24.53L105.56 24.53Q105.56 21.90 106.52 19.68Q107.48 17.46 109.48 16.10Q111.48 14.73 114.40 14.73L114.40 14.73Q117.14 14.73 119.14 16.00Q121.14 17.28 122.17 19.41Q123.21 21.53 123.21 24.05L123.21 24.05Q123.21 24.75 122.75 25.23Q122.28 25.72 121.51 25.72L121.51 25.72L108.96 25.72Q109.26 28.30 110.89 29.75Q112.52 31.19 115.44 31.19L115.44 31.19Q116.99 31.19 118.16 30.90Q119.32 30.60 120.43 30.04L120.43 30.04Q120.73 29.90 121.10 29.90L121.10 29.90Q121.69 29.90 122.14 30.30Q122.58 30.71 122.58 31.34L122.58 31.34Q122.58 32.15 121.62 32.71L121.62 32.71Q120.18 33.52 118.77 33.93Q117.36 34.34 115.14 34.34L115.14 34.34ZM108.96 22.98L119.88 22.98Q119.77 21.16 118.94 19.94Q118.10 18.72 116.88 18.15Q115.66 17.58 114.40 17.58L114.40 17.58Q113.15 17.58 111.92 18.15Q110.70 18.72 109.89 19.94Q109.08 21.16 108.96 22.98L108.96 22.98ZM134.16 34.34Q128.76 34.34 128.76 29.45L128.76 29.45L128.76 17.98L126.13 17.98Q125.84 17.98 125.63 17.78Q125.43 17.58 125.43 17.28L125.43 17.28Q125.43 16.91 125.76 16.65L125.76 16.65L130.79 11.73Q131.13 11.40 131.42 11.40L131.42 11.40Q131.72 11.40 131.92 11.62Q132.13 11.84 132.13 12.14L132.13 12.14L132.13 15.10L136.31 15.10Q136.94 15.10 137.34 15.50Q137.75 15.91 137.75 16.54L137.75 16.54Q137.75 17.13 137.34 17.56Q136.94 17.98 136.31 17.98L136.31 17.98L132.13 17.98L132.13 29.16Q132.13 30.60 132.81 30.99Q133.50 31.38 134.53 31.38L134.53 31.38Q135.27 31.38 136.01 31.15L136.01 31.15Q136.16 31.12 136.33 31.08Q136.49 31.04 136.75 31.04L136.75 31.04Q137.27 31.04 137.68 31.43Q138.08 31.82 138.08 32.38L138.08 32.38Q138.08 33.23 137.23 33.67L137.23 33.67Q135.79 34.34 134.16 34.34L134.16 34.34ZM163.47 34.34Q159.77 34.34 156.82 32.73Q153.88 31.12 152.20 28.10Q150.52 25.09 150.52 21.05L150.52 21.05Q150.52 17.02 152.20 14.00Q153.88 10.99 156.82 9.38Q159.77 7.77 163.47 7.77L163.47 7.77Q165.98 7.77 167.96 8.36Q169.94 8.95 171.90 10.06L171.90 10.06Q172.72 10.51 172.72 11.47L172.72 11.47Q172.72 12.03 172.31 12.45Q171.90 12.88 171.24 12.88L171.24 12.88Q170.87 12.88 170.57 12.73L170.57 12.73Q168.94 11.88 167.39 11.43Q165.83 10.99 163.80 10.99L163.80 10.99Q160.62 10.99 158.38 12.30Q156.14 13.62 155.01 15.89Q153.88 18.17 153.88 21.05L153.88 21.05Q153.88 23.94 155.01 26.21Q156.14 28.49 158.38 29.80Q160.62 31.12 163.80 31.12L163.80 31.12Q165.83 31.12 167.39 30.67Q168.94 30.23 170.57 29.38L170.57 29.38Q170.87 29.23 171.24 29.23L171.24 29.23Q171.90 29.23 172.31 29.64Q172.72 30.04 172.72 30.64L172.72 30.64Q172.72 31.60 171.90 32.04L171.90 32.04Q169.94 33.15 167.96 33.74Q165.98 34.34 163.47 34.34L163.47 34.34ZM178.52 34.15Q177.82 34.15 177.34 33.67Q176.86 33.19 176.86 32.49L176.86 32.49L176.86 16.61Q176.86 15.91 177.34 15.41Q177.82 14.91 178.52 14.91L178.52 14.91Q179.23 14.91 179.73 15.41Q180.23 15.91 180.23 16.61L180.23 16.61L180.23 18.20Q182.82 14.73 186.04 14.73L186.04 14.73L186.22 14.73Q186.92 14.73 187.39 15.21Q187.85 15.69 187.85 16.39L187.85 16.39Q187.85 17.09 187.37 17.54Q186.89 17.98 186.15 17.98L186.15 17.98L185.96 17.98Q184.19 17.98 182.71 18.85Q181.23 19.72 180.23 21.24L180.23 21.24L180.23 32.49Q180.23 33.19 179.73 33.67Q179.23 34.15 178.52 34.15L178.52 34.15ZM198.91 34.34Q194.40 34.34 191.86 31.76Q189.33 29.19 189.33 24.53L189.33 24.53Q189.33 21.90 190.29 19.68Q191.25 17.46 193.25 16.10Q195.25 14.73 198.17 14.73L198.17 14.73Q200.91 14.73 202.91 16.00Q204.91 17.28 205.94 19.41Q206.98 21.53 206.98 24.05L206.98 24.05Q206.98 24.75 206.52 25.23Q206.05 25.72 205.28 25.72L205.28 25.72L192.73 25.72Q193.03 28.30 194.66 29.75Q196.28 31.19 199.21 31.19L199.21 31.19Q200.76 31.19 201.93 30.90Q203.09 30.60 204.20 30.04L204.20 30.04Q204.50 29.90 204.87 29.90L204.87 29.90Q205.46 29.90 205.90 30.30Q206.35 30.71 206.35 31.34L206.35 31.34Q206.35 32.15 205.39 32.71L205.39 32.71Q203.94 33.52 202.54 33.93Q201.13 34.34 198.91 34.34L198.91 34.34ZM192.73 22.98L203.65 22.98Q203.54 21.16 202.70 19.94Q201.87 18.72 200.65 18.15Q199.43 17.58 198.17 17.58L198.17 17.58Q196.91 17.58 195.69 18.15Q194.47 18.72 193.66 19.94Q192.84 21.16 192.73 22.98L192.73 22.98ZM216.23 34.34Q214.60 34.34 213.21 33.67Q211.82 33.00 211.01 31.73Q210.20 30.45 210.20 28.79L210.20 28.79Q210.20 26.05 212.36 24.42Q214.53 22.79 218.71 22.79L218.71 22.79L223.18 22.79L223.18 22.50Q223.18 20.05 221.98 18.98Q220.78 17.91 218.23 17.91L218.23 17.91Q216.82 17.91 215.73 18.13Q214.64 18.35 213.30 18.80L213.30 18.80Q213.01 18.87 212.82 18.87L212.82 18.87Q212.27 18.87 211.86 18.46Q211.45 18.06 211.45 17.46L211.45 17.46Q211.45 16.47 212.42 16.06L212.42 16.06Q215.56 14.73 218.82 14.73L218.82 14.73Q221.37 14.73 223.13 15.76Q224.89 16.80 225.72 18.44Q226.55 20.09 226.55 22.02L226.55 22.02L226.55 32.49Q226.55 33.19 226.05 33.67Q225.55 34.15 224.85 34.15L224.85 34.15Q224.15 34.15 223.66 33.67Q223.18 33.19 223.18 32.49L223.18 32.49L223.18 31.52Q220.45 34.34 216.23 34.34L216.23 34.34ZM217.49 31.38Q219.11 31.38 220.63 30.58Q222.15 29.79 223.18 28.60L223.18 28.60L223.18 25.49L219.15 25.49Q213.56 25.49 213.56 28.42L213.56 28.42Q213.56 29.75 214.47 30.56Q215.38 31.38 217.49 31.38L217.49 31.38ZM238.28 34.34Q232.88 34.34 232.88 29.45L232.88 29.45L232.88 17.98L230.25 17.98Q229.96 17.98 229.75 17.78Q229.55 17.58 229.55 17.28L229.55 17.28Q229.55 16.91 229.88 16.65L229.88 16.65L234.91 11.73Q235.25 11.40 235.54 11.40L235.54 11.40Q235.84 11.40 236.04 11.62Q236.25 11.84 236.25 12.14L236.25 12.14L236.25 15.10L240.43 15.10Q241.06 15.10 241.46 15.50Q241.87 15.91 241.87 16.54L241.87 16.54Q241.87 17.13 241.46 17.56Q241.06 17.98 240.43 17.98L240.43 17.98L236.25 17.98L236.25 29.16Q236.25 30.60 236.93 30.99Q237.61 31.38 238.65 31.38L238.65 31.38Q239.39 31.38 240.13 31.15L240.13 31.15Q240.28 31.12 240.44 31.08Q240.61 31.04 240.87 31.04L240.87 31.04Q241.39 31.04 241.79 31.43Q242.20 31.82 242.20 32.38L242.20 32.38Q242.20 33.23 241.35 33.67L241.35 33.67Q239.91 34.34 238.28 34.34L238.28 34.34ZM253.97 34.34Q251.12 34.34 248.97 33.12Q246.83 31.89 245.66 29.66Q244.50 27.42 244.50 24.53L244.50 24.53Q244.50 21.65 245.66 19.41Q246.83 17.17 248.97 15.95Q251.12 14.73 253.97 14.73L253.97 14.73Q256.78 14.73 258.93 15.95Q261.07 17.17 262.26 19.41Q263.44 21.65 263.44 24.53L263.44 24.53Q263.44 27.42 262.26 29.66Q261.07 31.89 258.93 33.12Q256.78 34.34 253.97 34.34L253.97 34.34ZM253.97 31.27Q255.48 31.27 256.87 30.56Q258.26 29.86 259.17 28.34Q260.07 26.83 260.07 24.49L260.07 24.49Q260.07 22.20 259.17 20.68Q258.26 19.17 256.87 18.48Q255.48 17.80 253.97 17.80L253.97 17.80Q252.41 17.80 251.03 18.48Q249.64 19.17 248.75 20.68Q247.86 22.20 247.86 24.49L247.86 24.49Q247.86 26.83 248.75 28.34Q249.64 29.86 251.03 30.56Q252.41 31.27 253.97 31.27L253.97 31.27ZM269.80 34.15Q269.10 34.15 268.62 33.67Q268.14 33.19 268.14 32.49L268.14 32.49L268.14 16.61Q268.14 15.91 268.62 15.41Q269.10 14.91 269.80 14.91L269.80 14.91Q270.51 14.91 271.01 15.41Q271.51 15.91 271.51 16.61L271.51 16.61L271.51 18.20Q274.10 14.73 277.31 14.73L277.31 14.73L277.50 14.73Q278.20 14.73 278.67 15.21Q279.13 15.69 279.13 16.39L279.13 16.39Q279.13 17.09 278.65 17.54Q278.17 17.98 277.43 17.98L277.43 17.98L277.24 17.98Q275.47 17.98 273.99 18.85Q272.50 19.72 271.51 21.24L271.51 21.24L271.51 32.49Q271.51 33.19 271.01 33.67Q270.51 34.15 269.80 34.15L269.80 34.15ZM288.42 34.34Q284.71 34.34 281.68 32.67L281.68 32.67Q281.05 32.23 281.05 31.45L281.05 31.45Q281.05 30.86 281.46 30.41Q281.87 29.97 282.50 29.97L282.50 29.97Q282.83 29.97 283.16 30.12L283.16 30.12Q284.35 30.64 285.53 30.93Q286.71 31.23 288.19 31.23L288.19 31.23Q292.30 31.23 292.30 28.60L292.30 28.60Q292.30 27.75 291.36 27.31Q290.41 26.86 288.27 26.31L288.27 26.31Q286.08 25.79 284.66 25.23Q283.24 24.68 282.22 23.55Q281.20 22.42 281.20 20.57L281.20 20.57Q281.20 17.98 283.07 16.35Q284.94 14.73 288.42 14.73L288.42 14.73Q291.26 14.73 293.78 15.65L293.78 15.65Q294.30 15.80 294.58 16.21Q294.85 16.61 294.85 17.06L294.85 17.06Q294.85 17.65 294.43 18.09Q294.00 18.54 293.37 18.54L293.37 18.54Q293.19 18.54 292.89 18.46L292.89 18.46Q290.75 17.80 288.67 17.80L288.67 17.80Q286.68 17.80 285.55 18.52Q284.42 19.24 284.42 20.39L284.42 20.39Q284.42 21.50 285.45 22.02Q286.49 22.53 288.67 23.01L288.67 23.01Q290.86 23.57 292.23 24.11Q293.60 24.64 294.58 25.79Q295.56 26.94 295.56 28.86L295.56 28.86Q295.56 31.23 293.69 32.78Q291.82 34.34 288.42 34.34L288.42 34.34Z" transform="translate(0, 0)"/></g></svg></svg>